<!--?xml version="1.0" encoding="utf-8"?-->
<!-- Generator: Adobe Illustrator 18.1.1, SVG Export Plug-In . SVG Version: 6.00 Build 0)  -->

<svg version="1.1" id="_x31_0" xmlns="http://www.w3.org/2000/svg" xmlns:xlink="http://www.w3.org/1999/xlink" x="0px" y="0px" viewBox="0 0 512 512" style="width: 256px; height: 256px; opacity: 1;" xml:space="preserve">
<style type="text/css">
	.st0{fill:#374149;}
</style>
<g>
	<path class="st0" d="M223.793,337.968c19.203-9.258,36.508-22.289,50.086-39.043c25.934-31.984,34.359-75.492,20.449-114.496
		c-12.84-35.996-39.992-61.539-72.805-76.305c-0.878-0.398-1.762-0.785-2.652-1.168c-2.649-1.133-5.324-2.203-8.039-3.199
		c-0.539-0.195-1.058-0.418-1.602-0.609c-3.285-1.168-6.625-2.207-9.992-3.172c-0.629-0.18-1.262-0.348-1.894-0.52
		C156.617,88.276,110.996,91.816,74,110.792C31.465,132.612,0,174.725,0,223.628c0,45.672,27.383,87.688,71.172,111.297
		l3.442,24.508c3.355,23.918,32.308,35.73,51.434,20.793l33.183-25.914c22.289-1.094,44.457-6.649,64.551-16.336
		C223.782,337.976,223.789,337.972,223.793,337.968z M232.222,295.252c-3.578,2.836-7.308,5.477-11.203,7.871
		c-0.636,0.391-1.32,0.723-1.965,1.106c-3.734,2.195-7.55,4.258-11.504,6.058c-0.488,0.223-1.007,0.406-1.503,0.626
		c-4.234,1.859-8.555,3.554-12.973,4.965c-0.129,0.042-0.266,0.07-0.394,0.113c-14.454,4.562-29.711,6.73-44.68,6.45l-27.871,21.766
		l-13.766,10.652c-1.996-13.871-3.942-27.746-5.886-41.621c-28.098-10.946-52.954-32.332-63.446-61.125
		c-0.809-2.246-1.211-3.36-1.359-3.774c0.262,0.722,1.398,3.878,1.359,3.774c-12.734-35.336,0.442-73.043,28.121-97.039
		c28.34-24.57,67.848-34.027,104.622-29.02c34.703,4.723,68.918,23.122,87.106,53.848c17.125,28.934,15.664,64.797-3.227,92.523
		c-5.762,8.45-12.706,15.828-20.5,22.145C232.855,294.812,232.523,295.015,232.222,295.252z" style="fill:#06c286;"></path>
	<path class="st0" d="M467.637,171.316c-27.004-22.535-62.574-34.954-100.16-34.954c-22.993,0-45.278,4.726-65.29,13.558
		c-0.992,0.43-2.007,0.821-2.984,1.27c0.004,0.004,0.008,0.012,0.012,0.02c-0.047,0.023-0.098,0.042-0.145,0.062
		c5.484,8.746,9.898,17.953,13.226,27.48c0.02,0.059,0.047,0.122,0.062,0.18l0.008-0.004c0.019,0.051,0.047,0.098,0.062,0.149
		c16.328-7.668,35.098-11.95,55.047-11.95c62.851,0,113.805,42.485,113.805,94.894c0,9.5-1.696,18.676-4.801,27.332
		c-0.047,0.188-0.141,0.375-0.188,0.52c-0.707,1.926-1.504,3.809-2.351,5.691c-0.379,0.848-0.801,1.645-1.226,2.45
		c-0.61,1.218-1.176,2.445-1.832,3.621c-0.563,1.035-1.176,1.977-1.742,2.965c-0.61,0.984-1.219,2.019-1.836,3.008
		c-0.61,0.894-1.219,1.742-1.879,2.637c-0.754,1.035-1.461,2.117-2.258,3.152c-0.473,0.61-0.988,1.176-1.504,1.786
		c-1.039,1.273-2.074,2.59-3.152,3.812c-0.238,0.234-0.473,0.422-0.661,0.66c-11.101,12.09-25.594,21.875-42.297,28.414
		l-3.714,26.676l-1.301,9l-0.695,4.308l-39.875-31.187c-0.848,0.047-1.649,0.094-2.492,0.094c-35.805,0-67.797-13.878-88.496-35.473
		c-3.766,3.86-7.813,7.578-12.043,11.106c-3.586,2.992-7.359,5.84-11.211,8.531c-0.102,0.062-0.195,0.141-0.297,0.203
		c0.004,0.004,0.008,0.008,0.012,0.012c-0.043,0.031-0.082,0.066-0.129,0.098c3.671,3.953,7.718,7.762,12.046,11.34
		c24.981,20.84,57.348,33.023,91.79,34.718L391,412.382c5.504,4.281,12.183,6.492,18.957,6.492c3.86,0,7.809-0.754,11.527-2.258
		c10.161-4.094,17.406-13.364,18.914-24.227l3.289-23.523C485.75,346.186,512,305.87,512,262.022
		C512,227.393,496.238,195.171,467.637,171.316z" style="fill:#06c286;"></path>
	<path class="st0" d="M342.539,305.913l7.527-20.039h34.863l7.527,20.039h20.039l-37.402-92.727h-15.195l-27.156,67.329
		L322.5,305.756h0.062l-0.062,0.157H342.539z M379.457,271.382h-17.73l-6.226-0.055l11.977-30.996l8.859,22.844L379.457,271.382z" style="fill:#06c286;"></path>
	<path class="st0" d="M181.282,257.413c1.554-2.227,2.773-4.539,3.648-6.954c0.875-2.41,1.508-5.027,1.898-7.859
		c0.39-2.828,0.633-5.91,0.73-9.25c0.098-3.335,0.145-7,0.145-10.984c0-4.73-0.074-8.992-0.219-12.797
		c-0.054-1.398-0.332-2.551-0.457-3.867c-0.098-1.043-0.214-2.054-0.359-3.047c-0.172-1.164-0.191-2.492-0.426-3.586
		c-0.68-3.199-1.726-6.145-3.137-8.832c-1.414-2.691-3.43-5.286-6.058-7.789c-3.504-3.34-7.497-5.91-11.973-7.719
		c-4.477-1.809-9.734-2.714-15.766-2.714c-6.035,0-11.293,0.906-15.766,2.714c-4.481,1.809-8.52,4.379-12.122,7.719
		c-2.625,2.503-4.644,5.098-6.058,7.789c-1.41,2.687-2.43,5.633-3.062,8.832c-0.238,1.187-0.27,2.633-0.434,3.906
		c-0.102,0.77-0.187,1.546-0.262,2.351c-0.141,1.438-0.414,2.707-0.473,4.242c-0.145,3.805-0.218,8.066-0.218,12.797
		c0,4.726,0.074,8.992,0.218,12.793c0.145,3.805,0.531,7.305,1.168,10.504c0.633,3.195,1.652,6.141,3.062,8.828
		c1.414,2.692,3.434,5.286,6.058,7.79c3.602,3.339,7.641,5.914,12.122,7.718c4.473,1.809,9.73,2.715,15.766,2.715
		c4.183,0,8.004-0.465,11.457-1.391c3.457-0.926,6.598-2.226,9.422-3.894l9.34,8.622l10.043-9.563l0.508-0.472l-0.008-0.008
		l0.117-0.11L181.282,257.413z M167.047,234.534c-0.199,2.562-0.63,4.711-1.196,6.61c-0.14,0.386-0.226,0.832-0.394,1.195
		l-7.824-7.457L147.57,244.6l-0.485,0.457l0.004,0.004l-0.117,0.114l7.238,6.785l1.773,1.715c-1.941,1.191-4.16,1.793-6.675,1.793
		c-2.825,0-5.328-0.508-7.52-1.531c-2.191-1.02-4.062-2.317-5.621-3.894c-0.973-1.02-1.778-2.157-2.41-3.406
		c-0.633-1.254-1.141-2.875-1.531-4.867c-0.39-1.996-0.656-4.543-0.801-7.652c-0.144-3.106-0.222-7.024-0.222-11.75
		c0-4.73,0.078-8.649,0.222-11.754c0.145-3.106,0.41-5.68,0.801-7.719s0.898-3.687,1.531-4.938c0.633-1.254,1.438-2.386,2.41-3.41
		c1.558-1.574,3.43-2.848,5.621-3.825c2.192-0.972,4.695-1.457,7.52-1.457c2.82,0,5.328,0.485,7.519,1.457
		c2.191,0.977,4.016,2.25,5.473,3.825c0.973,1.023,1.778,2.156,2.41,3.41c0.633,1.25,1.14,2.898,1.535,4.938
		c0.386,2.039,0.675,4.614,0.87,7.719c0.196,3.105,0.298,7.023,0.298,11.754C167.414,227.37,167.289,231.428,167.047,234.534z" style="fill:#06c286;"></path>
</g>
</svg>
