<!--?xml version="1.0" encoding="utf-8"?-->
<!-- Generator: Adobe Illustrator 18.1.1, SVG Export Plug-In . SVG Version: 6.00 Build 0)  -->

<svg version="1.1" id="_x31_0" xmlns="http://www.w3.org/2000/svg" xmlns:xlink="http://www.w3.org/1999/xlink" x="0px" y="0px" viewBox="0 0 512 512" style="width: 256px; height: 256px; opacity: 1;" xml:space="preserve">
<style type="text/css">
	.st0{fill:#374149;}
</style>
<g>
	<path class="st0" d="M455.383,120.442c-34.422-28.703-79.786-44.543-127.661-44.543c-26.93,0-53.031,5.07-76.871,14.578
		c-4.601,1.801-9.148,3.699-13.562,5.816c0.047,0.02,0.09,0.043,0.137,0.062c-0.062,0.031-0.129,0.059-0.195,0.09
		c16.191,6.469,31.133,14.898,44.383,24.937c14.469-4.078,29.996-6.273,46.109-6.273c80.102,0,145.07,54.183,145.07,121.031
		c0,48.542-34.309,90.418-83.789,109.668l-4.821,34.324l-2.426,16.707l-50.938-39.742c-1.019,0-2.078,0.039-3.098,0.039
		c-2.094,0-4.164-0.082-6.238-0.156c-1.82-0.066-3.633-0.157-5.445-0.278c-3.754-0.25-7.469-0.629-11.137-1.118
		c-2.66-0.363-5.301-0.762-7.906-1.254c-1.386-0.254-2.793-0.473-4.168-0.762c-10.199,9.191-21.742,17.23-34.211,24.09
		c-2.562,1.375-5.109,2.774-7.762,4.031c0.043,0.016,0.09,0.027,0.133,0.047c-0.066,0.031-0.125,0.07-0.191,0.102
		c20.703,8.274,43.129,13.133,66.301,14.274l40.621,31.714c6.977,5.454,15.485,8.274,24.11,8.274c4.981,0,9.961-0.942,14.703-2.859
		c12.981-5.215,22.195-17.02,24.114-30.898l4.234-29.993C478.477,343.453,512,292.054,512,236.141
		C512,191.957,491.886,150.902,455.383,120.442z" style="fill:#06c286;"></path>
	<path class="st0" d="M321.508,242.226c0-75.378-72.118-136.699-160.754-136.699C72.114,105.527,0,166.848,0,242.226
		c0,50.586,33.125,97.094,85.164,120.68l5.934,42.277c0.778,5.551,4.457,10.266,9.652,12.364c1.899,0.769,3.895,1.144,5.875,1.144
		c3.446,0,6.852-1.133,9.657-3.324l46.683-36.457C250.59,377.906,321.508,316.977,321.508,242.226z M232.965,212.031
		c0,4.973-4.031,9-9.004,9H97.547c-4.973,0-9.004-4.027-9.004-9c0-4.973,4.031-9.004,9.004-9.004h126.414
		C228.934,203.027,232.965,207.058,232.965,212.031z M88.543,256.047c0-4.973,4.031-9.004,9.004-9.004h126.414
		c4.973,0,9.004,4.031,9.004,9.004c0,4.972-4.031,9-9.004,9H97.547C92.574,265.047,88.543,261.019,88.543,256.047z M97.547,291.058
		h72.254c4.973,0,9,4.027,9,9.004c0,4.973-4.027,9-9,9H97.547c-4.973,0-9.004-4.027-9.004-9
		C88.543,295.086,92.574,291.058,97.547,291.058z" style="fill:#06c286;"></path>
</g>
</svg>
