<svg xmlns="http://www.w3.org/2000/svg" version="1.1" id="_x31_0" x="0px" y="0px" viewBox="0 0 512 512" style="width: 256px; height: 256px; opacity: 1;" xml:space="preserve">
<style type="text/css">
	.st0{fill:#374149;}
</style>
<g>
	<path class="st0" d="M329.81,287.359c-0.606,2.172-1.301,4.34-2.082,6.512l-0.348,1.039c-1.91,5.558-4.774,10.414-7.55,14.32   c3.039,1.906,6.77,4.078,11.281,6.336l1.129,0.606c33.934,17.273,49.555,25.519,56.934,32.285   c7.551,6.942,14.926,18.226,20.657,31.676c0.086,0.176,0.172,0.347,0.258,0.613c34.457-1.914,66.043-6.602,92.863-13.546   c6.16-1.558,9.981-7.547,8.852-13.797c-3.993-22.301-14.321-40.352-21.524-46.954c-5.641-5.117-30.809-17.874-52.332-28.808   c-15.707-8.074-24.473-15.102-26.992-17.36v-21.09c1.129-0.434,2.258-1.301,3.301-2.43c3.211-3.554,5.898-7.633,7.203-11.367   c2.863-7.898,5.207-17.442,5.554-19.961c0.086-0.262,0.086-0.43,0.086-0.695c1.125,0.347,2.258,0.523,3.121,0.523   c11.371,0,15.973-23.172,16.664-29.336c0.695-6.164-4.77-10.324-6.77-11.977c0.434-0.953,0.957-2.43,1.477-4.078   c1.129-3.469,2.953-8.68,4.164-17.703c1.305-9.894-1.734-21.699-7.894-28.985c-7.813-9.289-20.137-18.316-25.254-18.316   c-8.16-14.754-18.66-24.301-38.102-25.688c-1.214,0-2.343,0-3.644-0.086H370.6c-16.141,0-44.348,15.274-55.367,35.062   c-3.473,6.336-6.164,11.801-7.898,17.094c-0.696,2.086-1.301,4.164-1.734,6.25c1.906,2.168,3.816,4.598,5.55,7.113   c7.985,4.082,15.278,10.07,20.832,15.454c1.734,1.648,3.817,3.816,5.898,6.16l1.215,1.386c4.168,5.035,7.55,10.938,9.894,17.446   c2.515,6.336,3.992,13.797,4.254,21.086c0.172,3.649,0,7.469-0.519,10.938c-0.523,3.821-1.129,7.379-1.824,10.414   c-0.176,0.867-0.348,1.652-0.52,2.43c3.73,7.465,4.25,14.492,3.645,20.051C352.115,257.855,344.74,278.074,329.81,287.359z" style="fill:#808080;" />
	<path class="st0" d="M102.084,380.309c5.902-13.887,13.363-25.168,21.004-32.024c7.114-6.507,22.734-14.84,56.672-32.113   l1.039-0.606c4.129-2.11,7.598-4.114,10.519-5.856c0.164-0.09,0.383-0.214,0.547-0.3c0,0-0.004-0.008-0.008-0.016   c0.039-0.023,0.094-0.054,0.137-0.078c-3.297-4.507-5.902-9.461-7.637-14.406c0,0-2.516-7.375-2.516-7.551   c-12.758-8.07-21.266-25.254-23.695-49.121c-0.519-5.555-0.086-12.406,3.473-19.352c-0.262-1.305-0.867-5.902-0.867-5.902   c-1.215-8.766-1.301-16.402-0.262-23.953c0.121-1.118,0.32-2.23,0.508-3.344c0.168-0.984,0.359-1.945,0.578-2.894   c0.25-1.11,0.493-2.218,0.825-3.309c1.301-5.293,3.297-10.586,6.16-16.664c1.476-3.21,3.21-6.418,5.121-9.98   c0.086-0.086,0.086-0.172,0.176-0.258v-0.957l5.031-6.942c6.683-9.109,15.882-17.445,26.035-24.129   c-1.129-2.426-2.43-4.77-4.078-6.766c-0.086-0.262-0.262-0.438-0.434-0.606c-7.809-9.289-20.218-18.316-25.254-18.316   c-8.246-14.754-18.746-24.301-38.188-25.688c-1.129,0-2.343,0-3.558-0.086h-0.258c-16.145,0-44.348,15.274-55.371,35.062   c-10.934,19.786-13.449,30.89-7.898,55.715c0.61,1.648,1.043,3.125,1.562,4.078c-1.91,1.653-6.77,4.34-6.16,10.414   c0.606,6.164,4.598,30.898,15.882,30.898c1.016,0,2.122-0.18,3.223-0.512c0.027-0.004,0.046-0.004,0.074-0.007   c0.175,2,1.214,7.55,3.297,13.187c0.695,1.996,1.562,4.598,2.515,7.289c1.301,3.821,3.992,8.074,7.293,11.633   c1.039,1.039,2.168,1.906,3.383,2.34v21.09c-2.516,2.258-11.371,9.286-26.988,17.36c-21.524,10.934-46.606,23.781-52.246,28.808   c-7.203,6.602-17.618,24.653-21.523,46.954c-1.129,6.25,2.687,12.238,8.851,13.797c26.73,6.859,58.496,11.546,92.859,13.546   C101.998,380.566,101.998,380.48,102.084,380.309z" style="fill:#808080;" />
	<path class="st0" d="M219.673,321.422c-2.488,2.297-11.378,9.328-27.011,17.34c-21.493,10.992-46.602,23.789-52.168,28.871   c-4.348,3.906-9.821,12.019-14.363,22.664c-0.977,2.347-1.954,4.789-2.832,7.379c-0.832,2.339-1.61,4.781-2.246,7.324   c-0.879,3.078-1.562,6.25-2.149,9.527c-1.074,6.25,2.734,12.258,8.84,13.824c35.805,9.129,80.207,14.555,128.325,14.555   c48.062,0,92.418-5.426,128.175-14.504c6.153-1.566,9.965-7.625,8.84-13.875c-0.586-3.278-1.316-6.45-2.148-9.527   c-0.684-2.543-1.418-4.985-2.298-7.324c-0.828-2.59-1.804-5.032-2.832-7.379c-4.496-10.645-9.965-18.707-14.312-22.664   c-5.566-5.133-30.774-17.926-52.27-28.871c-15.676-8.058-24.52-15.043-27.058-17.34V307.84v-7.469   c1.171-0.442,2.293-1.274,3.37-2.446c0.196-0.195,0.391-0.39,0.535-0.637c2.981-3.363,5.422-7.179,6.645-10.742   c0.145-0.441,0.293-0.882,0.438-1.324c2.687-7.617,4.738-16.214,5.133-18.656c0.047-0.246,0.047-0.442,0.094-0.637   c1.125,0.344,2.199,0.488,3.129,0.488c11.332,0,15.973-23.203,16.606-29.308c0.688-6.153-4.785-10.352-6.789-11.966   c0.442-0.98,0.98-2.441,1.515-4.152c0.051-0.098,0.098-0.246,0.149-0.39c0.68-2.102,1.656-4.938,2.539-8.891   c0.535-2.347,1.023-5.133,1.465-8.402c0.293-2,0.34-4.157,0.242-6.25c-0.145-4.398-1.074-8.938-2.684-13.094   c-1.32-3.614-3.176-6.934-5.422-9.625l-0.051-0.047c-1.562-1.855-3.32-3.758-5.179-5.473c-7.325-7.082-15.969-12.797-20.028-12.797   c-8.202-14.75-18.706-24.328-38.148-25.645c-1.172-0.046-2.344-0.046-3.614-0.094h-0.246c-14.653,0-39.371,12.598-51.973,29.793   c0,0.047,0,0.047,0,0.047c-1.27,1.715-2.394,3.473-3.371,5.23c-1.66,3.023-3.176,5.859-4.446,8.547   c-2.05,4.347-3.613,8.402-4.59,12.453c-0.59,1.906-0.977,3.863-1.176,5.867c-0.828,5.664-0.683,11.672,0.442,18.902v0.047   c0.442,2.984,1.027,6.203,1.809,9.672c0.046,0.05,0.046,0.101,0.046,0.148c0.586,1.711,1.074,3.172,1.614,4.152   c-1.953,1.614-6.789,4.301-6.203,10.402c0.633,6.153,4.59,30.871,15.922,30.871c1.028,0,2.102-0.144,3.27-0.488   c0.004,0,0.004,0,0.004,0c0.199,1.957,1.223,7.523,3.324,13.187c0.586,1.661,1.266,3.762,2,5.958   c0.149,0.445,0.294,0.836,0.442,1.273c1.223,3.52,3.516,7.332,6.398,10.602c0.293,0.34,0.637,0.684,0.93,1.028   c1.074,1.121,2.196,1.953,3.367,2.394v7.324V321.422z" style="fill:#808080;" />
</g>
</svg>