<?xml version="1.0" encoding="UTF-8" standalone="no"?>
<!DOCTYPE svg PUBLIC "-//W3C//DTD SVG 1.1//EN" "http://www.w3.org/Graphics/SVG/1.1/DTD/svg11.dtd">
<svg width="100%" height="100%" viewBox="0 0 304 304" version="1.1" xmlns="http://www.w3.org/2000/svg" xmlns:xlink="http://www.w3.org/1999/xlink" xml:space="preserve" xmlns:serif="http://www.serif.com/" style="fill-rule:evenodd;clip-rule:evenodd;stroke-linejoin:round;stroke-miterlimit:2;">
    <g transform="matrix(1.44058,0,0,1.44058,-183.559,-213.267)">
        <path d="M180.144,148.042L285.592,148.042L285.592,200.766L180.144,200.766L180.144,148.042ZM338.316,200.766L338.316,306.214L285.592,306.214L285.592,200.766L338.316,200.766ZM285.592,358.938L180.144,358.938L180.144,306.214L285.592,306.214L285.592,358.938ZM127.42,306.214L127.42,200.766L180.144,200.766L180.144,306.214L127.42,306.214Z" style="fill:#FFFFFF;"/>
    </g>
    <g transform="matrix(1.65375,0,0,1.3244,-230.944,-243.319)">
        <path d="M230.939,251.105C231.031,250.819 231.253,250.631 231.501,250.631C231.748,250.631 231.97,250.819 232.062,251.105C235.883,263.034 258.041,332.202 262.253,345.352C262.35,345.656 262.28,346.003 262.078,346.212C261.877,346.422 261.591,346.446 261.369,346.271C255.441,341.607 234.662,325.262 231.823,323.028C231.626,322.873 231.375,322.873 231.178,323.028C228.339,325.262 207.561,341.607 201.632,346.271C201.41,346.446 201.124,346.422 200.923,346.212C200.721,346.003 200.651,345.656 200.748,345.352C204.961,332.202 227.118,263.034 230.939,251.105Z" style="fill:#FFFFFF;"/>
    </g>
</svg>
