<?xml version="1.0" encoding="UTF-8" standalone="no"?>
<!DOCTYPE svg PUBLIC "-//W3C//DTD SVG 1.1//EN" "http://www.w3.org/Graphics/SVG/1.1/DTD/svg11.dtd">
<svg width="100%" height="100%" viewBox="0 0 512 512" version="1.1" xmlns="http://www.w3.org/2000/svg" xmlns:xlink="http://www.w3.org/1999/xlink" xml:space="preserve" xmlns:serif="http://www.serif.com/" style="fill-rule:evenodd;clip-rule:evenodd;stroke-linejoin:round;stroke-miterlimit:2;">
    <g>
        <path d="M77.869,448.93C77.869,462.242 79.492,474.582 83.144,484.891C88.095,498.527 96.619,508.348 109.443,511.188C112.041,511.676 114.72,512 117.56,512L394.924,512C395.654,512 396.305,512 396.871,511.918C423.334,510.215 434.129,482.699 434.129,448.93L445.25,179.606L66.748,179.606L77.869,448.93ZM331.529,239.672L384.209,239.672L384.209,451.934L331.529,451.934L331.529,239.672ZM229.658,239.672L282.34,239.672L282.34,451.934L229.658,451.934L229.658,239.672ZM127.789,239.672L180.551,239.672L180.551,451.934L127.789,451.934L127.789,239.672Z" style="fill:#C22806;fill-rule:nonzero;"/>
        <path d="M368.666,89.289C368.744,87.261 368.908,85.23 368.908,83.199L368.908,77.601C368.908,34.824 334.086,-0.001 291.308,-0.001L220.607,-0.001C177.829,-0.001 143.007,34.823 143.007,77.601L143.007,83.199C143.007,85.23 143.169,87.261 143.333,89.289C143.333,89.289 71.068,101.57 51.966,112C33.657,121.997 39.098,151.871 39.098,151.871L471.704,151.871C471.704,151.871 473.817,121.997 455.508,112C436.406,101.57 368.666,89.289 368.666,89.289ZM320.205,83.199C320.205,85.312 319.963,87.34 319.557,89.289L192.361,89.289C191.955,87.34 191.711,85.312 191.711,83.199L191.711,77.601C191.711,61.691 204.697,48.703 220.608,48.703L291.309,48.703C307.299,48.703 320.205,61.691 320.205,77.601L320.205,83.199Z" style="fill:#C22806;fill-rule:nonzero;"/>
    </g>
</svg>
