<?xml version="1.0" encoding="UTF-8" standalone="no"?>
<!DOCTYPE svg PUBLIC "-//W3C//DTD SVG 1.1//EN" "http://www.w3.org/Graphics/SVG/1.1/DTD/svg11.dtd">
<svg width="100%" height="100%" viewBox="0 0 800 350" version="1.1" xmlns="http://www.w3.org/2000/svg" xmlns:xlink="http://www.w3.org/1999/xlink" xml:space="preserve" xmlns:serif="http://www.serif.com/" style="fill-rule:evenodd;clip-rule:evenodd;stroke-linejoin:round;stroke-miterlimit:2;">
    <g transform="matrix(1,0,0,1,-100,-98.6038)">
        <g transform="matrix(1.3334,0,0,1.3334,-105.385,-384.981)">
            <g id="Logo" transform="matrix(1,0,0,1,0,24.6953)">
                <g transform="matrix(0.822159,0,0,0.822159,48.6035,83.4741)">
                    <g transform="matrix(157.128,0,0,157.128,480.505,628.256)">
                        <path d="M0.39,-0.56L0.39,-0L0.08,-0L0.08,-0.07L0.312,-0.07L0.312,-0.18L0.082,-0.18L0.082,-0.56L0.154,-0.56L0.154,-0.252L0.312,-0.252L0.312,-0.56L0.39,-0.56Z" style="fill:#06c286;fill-rule:nonzero;"/>
                    </g>
                    <g transform="matrix(157.128,0,0,157.128,554.313,628.256)">
                        <path d="M0.312,-0.26L0.312,-0.37L0.08,-0.37L0.08,-0.44L0.39,-0.44L0.39,-0L0.082,-0L0.082,-0.26L0.312,-0.26ZM0.312,-0.188L0.154,-0.188L0.154,-0.072L0.312,-0.072L0.312,-0.188Z" style="fill:#06c286;fill-rule:nonzero;"/>
                    </g>
                    <g transform="matrix(157.128,0,0,157.128,628.12,628.256)">
                        <path d="M0.316,-0.44L0.316,-0.66L0.39,-0.66L0.39,-0L0.08,-0L0.08,-0.44L0.316,-0.44ZM0.316,-0.072L0.316,-0.37L0.158,-0.37L0.158,-0.073L0.316,-0.072Z" style="fill:#06c286;fill-rule:nonzero;"/>
                    </g>
                    <g transform="matrix(157.128,0,0,157.128,701.927,628.256)">
                        <path d="M0.08,-0.439L0.08,-0L0.154,-0L0.154,-0.44L0.08,-0.439ZM0.08,-0.66L0.08,-0.53L0.154,-0.53L0.154,-0.66L0.08,-0.66Z" style="fill:#06c286;fill-rule:nonzero;"/>
                    </g>
                    <g transform="matrix(157.128,0,0,157.128,738.6,628.256)">
                        <rect x="0.025" y="-0.27" width="0.27" height="0.069" style="fill:#06c286;fill-rule:nonzero;"/>
                    </g>
                    <g transform="matrix(157.128,0,0,157.128,788.777,628.256)">
                        <path d="M0.44,-0L0.332,-0L0.242,-0.25L0.224,-0.25L0.134,-0L0.03,-0L0.146,-0.3L0.04,-0.56L0.144,-0.56L0.224,-0.32L0.242,-0.32L0.322,-0.56L0.43,-0.56L0.324,-0.3L0.44,-0Z" style="fill:#06c286;fill-rule:nonzero;"/>
                    </g>
                </g>
                <g id="Icon" transform="matrix(0.577215,0,0,0.577215,-71.0833,201.722)">
                    <g transform="matrix(1.87171,0,0,1.87171,151.506,18.1701)">
                        <path d="M180.144,148.042L285.592,148.042L285.592,200.766L180.144,200.766L180.144,148.042ZM338.316,200.766L338.316,306.214L285.592,306.214L285.592,200.766L338.316,200.766ZM285.592,358.938L180.144,358.938L180.144,306.214L285.592,306.214L285.592,358.938ZM127.42,306.214L127.42,200.766L180.144,200.766L180.144,306.214L127.42,306.214Z" style="fill:#06c286;"/>
                    </g>
                    <g transform="matrix(2.14868,0,0,1.72076,89.9402,-20.8749)">
                        <path d="M230.939,251.105C231.031,250.819 231.253,250.631 231.501,250.631C231.748,250.631 231.97,250.819 232.062,251.105C235.883,263.034 258.041,332.202 262.253,345.352C262.35,345.656 262.28,346.003 262.078,346.212C261.877,346.422 261.591,346.446 261.369,346.271C255.441,341.607 234.662,325.262 231.823,323.028C231.626,322.873 231.375,322.873 231.178,323.028C228.339,325.262 207.561,341.607 201.632,346.271C201.41,346.446 201.124,346.422 200.923,346.212C200.721,346.003 200.651,345.656 200.748,345.352C204.961,332.202 227.118,263.034 230.939,251.105Z" style="fill:#06c286;"/>
                    </g>
                    <g transform="matrix(3.03149,0,0,2.46701,-315.351,-714.345)">
                        <rect x="349.866" y="385.243" width="32.553" height="40.002" style="fill:#06c286;"/>
                    </g>
                    <g transform="matrix(2.02099,0,0,1.64467,136.871,-239.651)">
                        <rect x="349.866" y="385.243" width="32.553" height="40.002" style="fill:#06c286;"/>
                    </g>
                </g>
            </g>
        </g>
    </g>
</svg>
